# xmcd
#
# Track frame offsets: 
#        150
#        18818
#        40930
#        59059
#        80174
#        102554
#        124492
#        146122
#        171259
#        187807
#        202948
#        222386
#        244884
#        262991
#        282137
#        299326
#        315408
#
# Disc length: 4519 seconds
#
# Revision: 0
# Processed by: cddbd v1.5.2PL0 Copyright (c) Steve Scherf et al.
# Submitted via: ExactAudioCopy v0.99pb4
#
DISCID=0711a511
DTITLE=The Be good Tanyas - Blue Horse and Diverse
DYEAR=2000
DGENRE=Country/Folk
TTITLE0=The littlest Birds
TTITLE1=Broken Telephone
TTITLE2=Rain and Snow
TTITLE3=Lakes of Ponchartrain
TTITLE4=Only in the Past
TTITLE5=The Coo Coo Bird
TTITLE6=Dogsong aka sleep dog Lullaby
TTITLE7=Momsong
TTITLE8=Don't you fall
TTITLE9=Up against the Wall
TTITLE10=Oh Susanna
TTITLE11=Light enough to travell
TTITLE12=In spite of all the Damage
TTITLE13=ship out on the sea
TTITLE14=The Junkie song
TTITLE15=Rowdy Blues
TTITLE16=Waiting around to die
EXTD=
EXTT0=
EXTT1=
EXTT2=
EXTT3=
EXTT4=
EXTT5=
EXTT6=
EXTT7=
EXTT8=
EXTT9=
EXTT10=
EXTT11=
EXTT12=
EXTT13=
EXTT14=
EXTT15=
EXTT16=
PLAYORDER=
